<?xml version="1.0" encoding="utf-8"?>
<!-- Svg Vector Icons : http://www.onlinewebfonts.com/icon -->
<!DOCTYPE svg PUBLIC "-//W3C//DTD SVG 1.1//EN" "http://www.w3.org/Graphics/SVG/1.1/DTD/svg11.dtd">
<svg version="1.1" xmlns="http://www.w3.org/2000/svg" xmlns:xlink="http://www.w3.org/1999/xlink" x="0px" y="0px" viewBox="0 0 1000 1000" enable-background="new 0 0 1000 1000" xml:space="preserve">
<metadata> Svg Vector Icons : http://www.onlinewebfonts.com/icon </metadata>
<g><g transform="translate(0.000000,511.000000) scale(0.100000,-0.100000)"><path d="M1459.6,4976.4c-133.2-46.5-243.1-128.9-325.5-243.1c-133.2-183.9-124.7,124.7-120.5-4664.8l6.3-4364.6l44.4-97.2c65.5-141.6,183.9-262.1,321.3-329.7l120.5-59.2l3519.2-6.3c2608.2-4.2,3542.4,0,3607.9,19c131,35.9,249.4,145.8,306.5,289.6l48.6,120.5V79.2v4438.6l-44.4,97.2c-65.5,141.6-183.9,262.1-321.3,329.7l-120.5,59.2l-3466.3,4.2C1751.2,5012.3,1563.1,5012.3,1459.6,4976.4z M8468.3,4562.1c31.7-16.9,67.6-55,82.4-86.7c19-42.3,25.4-1071.6,25.4-4377.3v-4324.5l-71.9-71.9l-71.8-71.9H5016.8c-3715.8,0-3504.4-6.3-3559.3,116.3c-40.2,84.6-35.9,8665.8,4.2,8737.7c61.3,112-124.7,105.7,3538.2,107.8C7910.3,4591.7,8417.6,4587.5,8468.3,4562.1z"/><path d="M2795.4,3780.1c-118.4-50.7-152.2-221.9-65.5-323.4c42.3-48.6,67.6-59.2,150.1-59.2c82.4,0,107.8,10.6,150.1,59.2c55,63.4,67.6,175.4,27.5,251.5c-19,35.9-137.4,103.6-181.8,101.5C2867.2,3807.6,2829.2,3794.9,2795.4,3780.1z"/><path d="M4951.3,3794.9c-61.3-14.8-131-86.7-148-148c-29.6-124.7,74-260,200.8-260c126.8,0,230.4,135.3,200.8,260C5177.4,3750.5,5057,3820.3,4951.3,3794.9z"/><path d="M7039.5,3778c-35.9-14.8-76.1-46.5-88.8-71.9c-40.1-74-27.5-186,27.5-249.4c42.3-48.6,67.6-59.2,150.1-59.2s107.8,10.6,150.1,59.2c90.9,105.7,48.6,285.3-78.2,329.7C7117.7,3813.9,7122,3813.9,7039.5,3778z"/><path d="M2780.6,3017.1c-71.9-40.2-101.5-93-101.5-179.7c0-95.1,33.8-147.9,120.5-181.8c148-63.4,281.1,25.4,281.1,183.9C3080.7,2996,2915.9,3093.2,2780.6,3017.1z"/><path d="M4930.1,3029.8c-135.3-57.1-171.2-232.5-67.6-334c42.3-44.4,78.2-59.2,141.6-59.2c245.2,0,274.8,359.3,31.7,401.6C5002,3042.5,4953.4,3040.3,4930.1,3029.8z"/><path d="M7041.6,3027.7c-167-67.6-141.6-353,31.7-391c76.1-16.9,200.8,33.8,232.5,90.9c29.6,55,29.6,162.8,2.1,217.7c-25.4,46.5-128.9,103.6-183.9,101.5C7102.9,3046.7,7064.9,3038.2,7041.6,3027.7z"/><path d="M2793.3,2266.8c-158.5-63.4-143.7-333.9,19-376.2c148-40.2,268.4,44.4,268.4,190.2C3080.7,2232.9,2937,2325.9,2793.3,2266.8z"/><path d="M4894.2,2256.2c-63.4-35.9-109.9-150.1-90.9-228.3c23.3-88.8,103.6-148,200.8-148c59.2,0,101.4,14.8,137.4,48.6C5321.2,2097.7,5114,2374.6,4894.2,2256.2z"/><path d="M6995.1,2235.1c-57.1-46.5-67.6-71.9-67.6-148c0-55,14.8-107.8,38-135.3c82.5-101.5,274.8-90.9,331.8,19c74,145.8,6.3,289.6-150.1,310.7C7077.6,2290,7052.2,2283.7,6995.1,2235.1z"/><path d="M2780.6,1199.4c-31.7-16.9-67.6-50.7-80.3-74c-12.7-25.4-21.1-314.9-21.1-779.9v-741.9h200.8h200.8v748.2c0,748.2,0,750.3-46.5,805.3C2975,1224.7,2858.8,1243.8,2780.6,1199.4z"/><path d="M4930.1,1212.1c-23.3-10.6-61.3-40.2-84.5-65.5c-40.2-44.4-42.3-80.3-48.6-794.7l-6.3-748.2h213.5h213.5l-6.3,750.3l-6.3,750.3l-52.8,52.8C5092.9,1214.2,4995.7,1239.5,4930.1,1212.1z"/><path d="M7041.6,1209.9c-112-44.4-114.1-57.1-114.1-860.2v-746.1h200.8h200.8v741.9c0,467.1-8.5,754.6-21.1,782c-25.4,46.5-128.9,103.6-183.9,101.4C7102.9,1229,7064.9,1220.5,7041.6,1209.9z"/><path d="M2457.2-618.3c-232.5-82.4-306.5-367.8-143.7-562.2c95.1-112,154.3-124.7,570.7-124.7c329.7,0,382.6,4.2,458.7,42.3c270.5,131,260,511.5-16.9,636.2c-74,33.8-139.5,40.2-435.4,38.1C2645.3-588.7,2516.4-597.2,2457.2-618.3z"/><path d="M4600.4-605.7c-164.9-52.8-262.1-198.7-247.3-369.9c10.6-135.3,71.9-230.4,186-287.4c74-38,126.8-42.3,465-42.3c338.2,0,391,4.2,465,42.3c114.1,57.1,175.4,152.2,186,287.4c10.6,135.3-44.4,247.3-158.5,325.5c-74,50.7-90.9,52.8-458.7,57.1C4826.6-590.9,4630-597.2,4600.4-605.7z"/><path d="M6682.3-626.8c-270.6-124.7-287.5-492.5-29.6-629.9c84.5-46.5,116.3-48.6,469.2-48.6c418.5,0,477.7,12.7,572.8,124.7c145.8,175.4,103.6,424.8-93,541.1c-63.4,38-116.3,42.3-452.3,48.6C6811.2-586.6,6758.4-590.9,6682.3-626.8z"/><path d="M2679.1-1715.3c0-198.7,4.2-228.3,48.6-276.9c31.7-38,76.1-59.2,135.3-67.6c78.2-10.6,95.1-4.2,154.3,52.8c63.4,63.4,63.4,67.6,63.4,287.5v224h-200.8h-200.8V-1715.3z"/><path d="M4792.7-1696.3c0-221.9,23.3-295.9,107.8-340.3c76.1-38.1,133.2-38.1,207.1,2.1c82.4,40.2,107.8,126.8,107.8,350.9v188.1h-211.4h-211.4V-1696.3z"/><path d="M6927.5-1725.9v-230.4l67.6-57.1c57.1-48.6,82.4-54.9,152.2-46.5c57.1,8.5,103.6,31.7,133.2,67.6c44.4,48.6,48.6,78.2,48.6,276.9v219.8h-200.8h-200.8V-1725.9z"/><path d="M4921.7-2573.4c-101.5-23.2-175.4-84.5-228.3-190.2c-44.4-86.6-48.6-122.6-48.6-458.7c0-412.2,12.7-465,133.2-570.7c179.7-156.4,462.9-88.8,555.9,135.3c44.4,103.6,40.2,763-2.1,866.6C5257.7-2617.8,5101.3-2533.3,4921.7-2573.4z"/><path d="M6695-2736.2c-164.9-63.4-232.5-196.6-232.5-471.3c0-241,23.2-331.8,99.3-407.9c112-105.7,186-120.5,572.8-120.5c325.5,0,361.4,4.2,448.1,48.6c158.5,80.3,209.3,192.4,211.4,465c0,253.6-46.5,367.8-192.3,456.6c-65.5,40.1-103.6,44.4-473.5,42.3C6908.5-2723.5,6711.9-2729.9,6695-2736.2z M7371.4-3218.1v-95.1h-243.1h-243.1v95.1v95.1h243.1h243.1V-3218.1z"/><path d="M2677-2911.6c-97.2-50.7-145.8-152.2-145.8-304.4c0-143.7,40.2-251.5,114.1-298c143.7-95.1,401.6-80.3,505.2,27.5c101.5,105.7,114.1,367.8,27.5,500.9c-21.1,31.7-69.8,69.7-107.8,86.7C2966.6-2856.7,2770-2863,2677-2911.6z"/><path d="M3995.9-3038.4c-118.4-48.6-139.5-253.6-33.8-338.2c46.5-35.9,84.5-42.3,272.7-42.3h219.8v200.8v200.8l-205-2.1C4135.4-3019.4,4021.3-3027.9,3995.9-3038.4z"/><path d="M5553.7-3218.1v-200.8h219.8c188.1,0,226.1,6.3,272.6,42.3c71.9,57.1,93,164.9,46.5,251.5c-44.4,88.8-103.6,107.8-340.3,107.8h-198.7V-3218.1z"/></g></g>
</svg>